<?xml version="1.0" encoding="UTF-8"?>
<svg xmlns="http://www.w3.org/2000/svg" xmlns:xlink="http://www.w3.org/1999/xlink" width="173pt" height="173pt" viewBox="0 0 173 173" version="1.1">
<g id="surface1">
<path style="fill-rule:nonzero;fill:rgb(100%,0%,0%);fill-opacity:1;stroke-width:1.59404;stroke-linecap:butt;stroke-linejoin:miter;stroke:rgb(0%,0%,0%);stroke-opacity:1;stroke-miterlimit:10;" d="M 85.041063 -0.00171875 C 85.041063 46.967031 46.966844 85.04125 -0.00190625 85.04125 C -46.96675 85.04125 -85.040969 46.967031 -85.040969 -0.00171875 C -85.040969 -46.966563 -46.96675 -85.040781 -0.00190625 -85.040781 C 46.966844 -85.040781 85.041063 -46.966563 85.041063 -0.00171875 " transform="matrix(1,0,0,-1,86.623,86.635)"/>
<path style=" stroke:none;fill-rule:nonzero;fill:rgb(0%,0%,100%);fill-opacity:1;" d="M 114.96875 86.636719 C 114.96875 70.980469 102.277344 58.289062 86.621094 58.289062 C 70.96875 58.289062 58.277344 70.980469 58.277344 86.636719 C 58.277344 102.289062 70.96875 114.980469 86.621094 114.980469 C 102.277344 114.980469 114.96875 102.289062 114.96875 86.636719 L 143.316406 86.636719 C 143.316406 117.945312 117.933594 143.328125 86.621094 143.328125 C 55.3125 143.328125 29.929688 117.945312 29.929688 86.636719 C 29.929688 55.324219 55.3125 29.941406 86.621094 29.941406 C 117.933594 29.941406 143.316406 55.324219 143.316406 86.636719 L 114.96875 86.636719 "/>
<path style=" stroke:none;fill-rule:nonzero;fill:rgb(0%,0%,100%);fill-opacity:1;" d="M 95.976562 86.636719 C 95.976562 81.46875 91.789062 77.28125 86.621094 77.28125 C 81.457031 77.28125 77.269531 81.46875 77.269531 86.636719 C 77.269531 91.800781 81.457031 95.988281 86.621094 95.988281 C 91.789062 95.988281 95.976562 91.800781 95.976562 86.636719 L 105.617188 86.636719 C 105.617188 97.125 97.113281 105.628906 86.621094 105.628906 C 76.132812 105.628906 67.628906 97.125 67.628906 86.636719 C 67.628906 76.144531 76.132812 67.644531 86.621094 67.644531 C 97.113281 67.644531 105.617188 76.144531 105.617188 86.636719 L 95.976562 86.636719 "/>
<path style=" stroke:none;fill-rule:nonzero;fill:rgb(0%,0%,100%);fill-opacity:1;" d="M 89.742188 86.636719 C 89.742188 84.914062 88.34375 83.515625 86.621094 83.515625 C 84.902344 83.515625 83.503906 84.914062 83.503906 86.636719 C 83.503906 88.355469 84.902344 89.753906 86.621094 89.753906 C 88.34375 89.753906 89.742188 88.355469 89.742188 86.636719 L 92.859375 86.636719 C 92.859375 90.078125 90.066406 92.871094 86.621094 92.871094 C 83.179688 92.871094 80.386719 90.078125 80.386719 86.636719 C 80.386719 83.191406 83.179688 80.398438 86.621094 80.398438 C 90.066406 80.398438 92.859375 83.191406 92.859375 86.636719 L 89.742188 86.636719 "/>
<path style=" stroke:none;fill-rule:nonzero;fill:rgb(0%,0%,100%);fill-opacity:1;" d="M 87.671875 86.636719 C 87.671875 86.054688 87.203125 85.585938 86.621094 85.585938 C 86.042969 85.585938 85.574219 86.054688 85.574219 86.636719 C 85.574219 87.214844 86.042969 87.683594 86.621094 87.683594 C 87.203125 87.683594 87.671875 87.214844 87.671875 86.636719 L 88.722656 86.636719 C 88.722656 87.792969 87.78125 88.734375 86.621094 88.734375 C 85.464844 88.734375 84.523438 87.792969 84.523438 86.636719 C 84.523438 85.476562 85.464844 84.539062 86.621094 84.539062 C 87.78125 84.539062 88.722656 85.476562 88.722656 86.636719 L 87.671875 86.636719 "/>
</g>
</svg>
