<?xml version="1.0" encoding="UTF-8"?>
<svg xmlns="http://www.w3.org/2000/svg" xmlns:xlink="http://www.w3.org/1999/xlink" width="257pt" height="144pt" viewBox="0 0 257 144" version="1.1">
<g id="surface1">
<path style="fill:none;stroke-width:0.79701;stroke-linecap:butt;stroke-linejoin:miter;stroke:rgb(100%,0%,0%);stroke-opacity:1;stroke-miterlimit:10;" d="M 0.0015 -0.0006875 L 0.0015 141.733688 L 255.122594 141.733688 L 255.122594 -0.0006875 Z M 0.0015 -0.0006875 " transform="matrix(1,0,0,-1,1.186,142.929)"/>
<path style="fill-rule:nonzero;fill:rgb(0%,0%,0%);fill-opacity:0.2;stroke-width:0.3985;stroke-linecap:butt;stroke-linejoin:miter;stroke:rgb(0%,0%,0%);stroke-opacity:1;stroke-miterlimit:10;" d="M 85.040562 -0.0006875 L 85.040562 141.733688 L 0.0015 141.733688 L 0.0015 -0.0006875 Z M 85.040562 -0.0006875 " transform="matrix(1,0,0,-1,1.186,142.929)"/>
<path style="fill:none;stroke-width:0.3985;stroke-linecap:butt;stroke-linejoin:miter;stroke:rgb(0%,0%,0%);stroke-opacity:1;stroke-miterlimit:10;" d="M 170.083531 -0.0006875 L 170.083531 141.733688 " transform="matrix(1,0,0,-1,1.186,142.929)"/>
<path style="fill-rule:nonzero;fill:rgb(0%,0%,0%);fill-opacity:0.2;stroke-width:0.3985;stroke-linecap:butt;stroke-linejoin:miter;stroke:rgb(0%,0%,0%);stroke-opacity:1;stroke-miterlimit:10;" d="M 113.388219 -0.0006875 L 113.388219 141.733688 L 0.0015 141.733688 L 0.0015 -0.0006875 Z M 113.388219 -0.0006875 " transform="matrix(1,0,0,-1,1.186,142.929)"/>
<path style="fill:none;stroke-width:0.3985;stroke-linecap:butt;stroke-linejoin:miter;stroke:rgb(0%,0%,0%);stroke-opacity:1;stroke-miterlimit:10;" d="M 141.735875 -0.0006875 L 141.735875 141.733688 " transform="matrix(1,0,0,-1,1.186,142.929)"/>
<path style="fill-rule:nonzero;fill:rgb(0%,0%,0%);fill-opacity:0.2;stroke-width:0.3985;stroke-linecap:butt;stroke-linejoin:miter;stroke:rgb(0%,0%,0%);stroke-opacity:1;stroke-miterlimit:10;" d="M 122.833531 -0.0006875 L 122.833531 141.733688 L 0.0015 141.733688 L 0.0015 -0.0006875 Z M 122.833531 -0.0006875 " transform="matrix(1,0,0,-1,1.186,142.929)"/>
<path style="fill:none;stroke-width:0.3985;stroke-linecap:butt;stroke-linejoin:miter;stroke:rgb(0%,0%,0%);stroke-opacity:1;stroke-miterlimit:10;" d="M 132.286656 -0.0006875 L 132.286656 141.733688 " transform="matrix(1,0,0,-1,1.186,142.929)"/>
<path style="fill-rule:nonzero;fill:rgb(0%,0%,0%);fill-opacity:0.2;stroke-width:0.3985;stroke-linecap:butt;stroke-linejoin:miter;stroke:rgb(0%,0%,0%);stroke-opacity:1;stroke-miterlimit:10;" d="M 125.985875 -0.0006875 L 125.985875 141.733688 L 0.0015 141.733688 L 0.0015 -0.0006875 Z M 125.985875 -0.0006875 " transform="matrix(1,0,0,-1,1.186,142.929)"/>
<path style="fill:none;stroke-width:0.3985;stroke-linecap:butt;stroke-linejoin:miter;stroke:rgb(0%,0%,0%);stroke-opacity:1;stroke-miterlimit:10;" d="M 129.138219 -0.0006875 L 129.138219 141.733688 " transform="matrix(1,0,0,-1,1.186,142.929)"/>
<path style="fill-rule:nonzero;fill:rgb(0%,0%,0%);fill-opacity:0.2;stroke-width:0.3985;stroke-linecap:butt;stroke-linejoin:miter;stroke:rgb(0%,0%,0%);stroke-opacity:1;stroke-miterlimit:10;" d="M 127.036656 -0.0006875 L 127.036656 141.733688 L 0.0015 141.733688 L 0.0015 -0.0006875 Z M 127.036656 -0.0006875 " transform="matrix(1,0,0,-1,1.186,142.929)"/>
<path style="fill:none;stroke-width:0.3985;stroke-linecap:butt;stroke-linejoin:miter;stroke:rgb(0%,0%,0%);stroke-opacity:1;stroke-miterlimit:10;" d="M 128.087437 -0.0006875 L 128.087437 141.733688 " transform="matrix(1,0,0,-1,1.186,142.929)"/>
</g>
</svg>
