<?xml version="1.0" encoding="UTF-8"?>
<svg xmlns="http://www.w3.org/2000/svg" xmlns:xlink="http://www.w3.org/1999/xlink" width="484pt" height="144pt" viewBox="0 0 484 144" version="1.1">
<g id="surface1">
<path style="fill:none;stroke-width:0.79701;stroke-linecap:butt;stroke-linejoin:miter;stroke:rgb(100%,0%,0%);stroke-opacity:1;stroke-miterlimit:10;" d="M 0.0015 -0.0006875 L 0.0015 141.733688 L 255.122594 141.733688 L 255.122594 -0.0006875 Z M 0.0015 -0.0006875 " transform="matrix(1,0,0,-1,1.186,142.929)"/>
<path style="fill-rule:nonzero;fill:rgb(0%,0%,0%);fill-opacity:0.2;stroke-width:0.3985;stroke-linecap:butt;stroke-linejoin:miter;stroke:rgb(0%,0%,0%);stroke-opacity:1;stroke-miterlimit:10;" d="M 85.040562 -0.0006875 L 85.040562 141.733688 L 0.0015 141.733688 L 0.0015 -0.0006875 Z M 85.040562 -0.0006875 " transform="matrix(1,0,0,-1,1.186,142.929)"/>
<path style="fill:none;stroke-width:0.3985;stroke-linecap:butt;stroke-linejoin:miter;stroke:rgb(0%,0%,0%);stroke-opacity:1;stroke-miterlimit:10;" d="M 170.083531 -0.0006875 L 170.083531 141.733688 " transform="matrix(1,0,0,-1,1.186,142.929)"/>
<path style="fill:none;stroke-width:0.79701;stroke-linecap:butt;stroke-linejoin:miter;stroke:rgb(100%,0%,0%);stroke-opacity:1;stroke-miterlimit:10;" d="M 283.466344 70.8665 L 311.106969 70.8665 " transform="matrix(1,0,0,-1,1.186,142.929)"/>
<path style="fill:none;stroke-width:0.6376;stroke-linecap:round;stroke-linejoin:round;stroke:rgb(100%,0%,0%);stroke-opacity:1;stroke-miterlimit:10;" d="M -1.555259 2.073719 C -1.426353 1.296375 -0.00057125 0.128406 0.390054 -0.0005 C -0.00057125 -0.129406 -1.426353 -1.293469 -1.555259 -2.070813 " transform="matrix(1,0,0,-1,312.29354,72.062)"/>
<path style="fill:none;stroke-width:0.79701;stroke-linecap:butt;stroke-linejoin:miter;stroke:rgb(100%,0%,0%);stroke-opacity:1;stroke-miterlimit:10;" d="M 340.161656 -0.0006875 L 340.161656 141.733688 L 595.28275 141.733688 L 595.28275 -0.0006875 Z M 340.161656 -0.0006875 " transform="matrix(1,0,0,-1,1.186,142.929)"/>
<path style="fill-rule:nonzero;fill:rgb(0%,0%,0%);fill-opacity:0.2;stroke-width:0.3985;stroke-linecap:butt;stroke-linejoin:miter;stroke:rgb(0%,0%,0%);stroke-opacity:1;stroke-miterlimit:10;" d="M 425.200719 -0.0006875 L 425.200719 141.733688 L 340.161656 141.733688 L 340.161656 -0.0006875 Z M 425.200719 -0.0006875 " transform="matrix(1,0,0,-1,1.186,142.929)"/>
<path style="fill-rule:nonzero;fill:rgb(0%,0%,0%);fill-opacity:0.2;stroke-width:0.3985;stroke-linecap:butt;stroke-linejoin:miter;stroke:rgb(0%,0%,0%);stroke-opacity:1;stroke-miterlimit:10;" d="M 453.548375 -0.0006875 L 453.548375 141.733688 L 340.161656 141.733688 L 340.161656 -0.0006875 Z M 453.548375 -0.0006875 " transform="matrix(1,0,0,-1,1.186,142.929)"/>
<path style="fill:none;stroke-width:0.3985;stroke-linecap:butt;stroke-linejoin:miter;stroke:rgb(0%,0%,0%);stroke-opacity:1;stroke-miterlimit:10;" d="M 481.896031 -0.0006875 L 481.896031 141.733688 " transform="matrix(1,0,0,-1,1.186,142.929)"/>
</g>
</svg>
