<?xml version="1.0" encoding="UTF-8"?>
<svg xmlns="http://www.w3.org/2000/svg" xmlns:xlink="http://www.w3.org/1999/xlink" width="189pt" height="165pt" viewBox="0 0 189 165" version="1.1">
<g id="surface1">
<path style="fill:none;stroke-width:0.79701;stroke-linecap:butt;stroke-linejoin:miter;stroke:rgb(0%,0%,0%);stroke-opacity:1;stroke-miterlimit:10;" d="M 51.378406 -70.866625 L 44.304187 -64.960375 L 37.84325 -59.058031 L 31.9995 -53.151781 L 26.772937 -47.245531 L 22.159656 -41.339281 L 18.159656 -35.433031 L 14.776844 -29.530688 L 12.007312 -23.624438 L 9.854969 -17.718188 L 8.315906 -11.811938 L 7.394031 -5.905688 L 7.085437 -0.00334375 L 7.394031 5.902906 L 8.315906 11.809156 L 9.854969 17.715406 L 12.007312 23.621656 L 14.772937 29.524 L 18.159656 35.43025 L 22.15575 41.3365 L 26.769031 47.24275 L 31.9995 53.149 L 37.84325 59.051344 L 44.300281 64.957594 L 51.3745 70.863844 " transform="matrix(1,0,0,-1,52.563,79.149)"/>
<path style="fill:none;stroke-width:0.79701;stroke-linecap:butt;stroke-linejoin:miter;stroke:rgb(0%,0%,0%);stroke-opacity:1;stroke-miterlimit:10;" d="M -51.379406 -70.866625 L -44.305188 -64.960375 L -37.84425 -59.058031 L -32.0005 -53.151781 L -26.773938 -47.245531 L -22.15675 -41.339281 L -18.160656 -35.433031 L -14.777844 -29.530688 L -12.008313 -23.624438 L -9.855969 -17.718188 L -8.316906 -11.811938 L -7.395031 -5.905688 L -7.086438 -0.00334375 L -7.395031 5.902906 L -8.316906 11.809156 L -9.855969 17.715406 L -12.008313 23.621656 L -14.773938 29.524 L -18.15675 35.43025 L -22.15675 41.3365 L -26.770031 47.24275 L -31.996594 53.149 L -37.840344 59.051344 L -44.301281 64.957594 L -51.3755 70.863844 " transform="matrix(1,0,0,-1,52.563,79.149)"/>
<path style="fill:none;stroke-width:0.79701;stroke-linecap:butt;stroke-linejoin:miter;stroke:rgb(0%,0%,0%);stroke-opacity:1;stroke-miterlimit:10;" d="M -51.379406 -70.866625 C -51.379406 -78.69475 -28.3755 -85.0385 -0.0005 -85.0385 C 28.3745 -85.0385 51.378406 -78.69475 51.378406 -70.866625 " transform="matrix(1,0,0,-1,52.563,79.149)"/>
<path style="fill:none;stroke-width:0.79701;stroke-linecap:butt;stroke-linejoin:miter;stroke:rgb(0%,0%,0%);stroke-opacity:1;stroke-miterlimit:10;" d="M 51.378406 70.86775 C 51.378406 74.781812 28.3745 77.953687 -0.0005 77.953687 C -28.3755 77.953687 -51.379406 74.781812 -51.379406 70.86775 C -51.379406 66.953687 -28.3755 63.781812 -0.0005 63.781812 C 28.3745 63.781812 51.378406 66.953687 51.378406 70.86775 Z M 51.378406 70.86775 " transform="matrix(1,0,0,-1,52.563,79.149)"/>
<path style="fill:none;stroke-width:0.79701;stroke-linecap:butt;stroke-linejoin:miter;stroke:rgb(0%,0%,0%);stroke-opacity:1;stroke-miterlimit:10;" d="M -7.086438 0.0005625 C -7.086438 -1.097094 -3.914563 -1.983813 -0.0005 -1.983813 C 3.913562 -1.983813 7.085437 -1.097094 7.085437 0.0005625 " transform="matrix(1,0,0,-1,52.563,79.149)"/>
<path style="fill:none;stroke-width:0.3985;stroke-linecap:butt;stroke-linejoin:miter;stroke:rgb(0%,0%,0%);stroke-opacity:1;stroke-dasharray:2.98883,2.98883;stroke-miterlimit:10;" d="M -7.086438 0.0005625 C -7.086438 1.094312 -3.914563 1.984937 -0.0005 1.984937 C 3.913562 1.984937 7.085437 1.094312 7.085437 0.0005625 " transform="matrix(1,0,0,-1,52.563,79.149)"/>
<path style=" stroke:none;fill-rule:nonzero;fill:rgb(0%,0%,0%);fill-opacity:0.1;" d="M 45.476562 79.148438 C 45.476562 80.246094 48.648438 81.132812 52.5625 81.132812 C 56.476562 81.132812 59.648438 80.246094 59.648438 79.148438 C 59.648438 78.054688 56.476562 77.164062 52.5625 77.164062 C 48.648438 77.164062 45.476562 78.054688 45.476562 79.148438 "/>
<path style=" stroke:none;fill-rule:nonzero;fill:rgb(0%,0%,0%);fill-opacity:0.3;" d="M 1.183594 150.015625 C 1.183594 157.84375 24.1875 164.1875 52.5625 164.1875 C 80.9375 164.1875 103.941406 157.84375 103.941406 150.015625 M 103.941406 150.015625 L 100.328125 147.0625 L 96.867188 144.109375 L 93.5625 141.160156 L 90.410156 138.207031 L 87.410156 135.253906 L 84.566406 132.300781 L 81.875 129.347656 L 79.335938 126.394531 L 76.953125 123.445312 L 74.722656 120.492188 L 72.648438 117.539062 L 70.726562 114.585938 L 68.957031 111.632812 L 67.339844 108.679688 L 65.878906 105.726562 L 64.574219 102.777344 L 63.417969 99.824219 L 62.417969 96.871094 L 61.574219 93.917969 L 60.882812 90.964844 L 60.34375 88.011719 L 59.957031 85.0625 L 59.726562 82.109375 L 59.648438 79.15625 C 59.648438 80.25 56.476562 81.140625 52.5625 81.140625 C 48.648438 81.140625 45.476562 80.25 45.476562 79.15625 M 45.476562 79.148438 L 45.398438 82.101562 L 45.167969 85.054688 L 44.785156 88.007812 L 44.246094 90.960938 L 43.554688 93.910156 L 42.707031 96.863281 L 41.710938 99.816406 L 40.554688 102.769531 L 39.25 105.722656 L 37.789062 108.675781 L 36.175781 111.625 L 34.40625 114.578125 L 32.484375 117.53125 L 30.40625 120.484375 L 28.179688 123.4375 L 25.796875 126.390625 L 23.257812 129.339844 L 20.566406 132.292969 L 17.722656 135.246094 L 14.722656 138.199219 L 11.574219 141.152344 L 8.265625 144.105469 L 4.808594 147.054688 L 1.191406 150.007812 C 1.191406 157.835938 24.195312 164.183594 52.570312 164.183594 C 80.949219 164.183594 103.949219 157.835938 103.949219 150.007812 "/>
<path style="fill:none;stroke-width:1.59404;stroke-linecap:butt;stroke-linejoin:miter;stroke:rgb(0%,0%,0%);stroke-opacity:1;stroke-miterlimit:10;" d="M 73.702625 0.0005625 C 75.472156 11.059156 81.679187 19.926344 88.979969 19.926344 C 96.28075 19.926344 102.483875 11.059156 104.257312 0.0005625 C 106.026844 -11.058031 103.366687 -19.925219 99.608875 -19.925219 C 95.851062 -19.925219 93.190906 -11.058031 94.960437 0.0005625 C 96.733875 11.059156 102.937 19.926344 110.237781 19.926344 C 117.538562 19.926344 123.745594 11.059156 125.515125 0.0005625 L 130.394031 0.0005625 " transform="matrix(1,0,0,-1,52.563,79.149)"/>
<path style="fill:none;stroke-width:1.59404;stroke-linecap:butt;stroke-linejoin:miter;stroke:rgb(0%,0%,0%);stroke-opacity:1;stroke-miterlimit:10;" d="M 130.394031 0.0005625 L 134.858875 0.0005625 " transform="matrix(1,0,0,-1,52.563,79.149)"/>
<path style="fill:none;stroke-width:1.27522;stroke-linecap:round;stroke-linejoin:round;stroke:rgb(0%,0%,0%);stroke-opacity:1;stroke-miterlimit:10;" d="M -2.269906 3.027906 C -2.082406 1.891187 -0.000375 0.188062 0.566031 0.0005625 C -0.000375 -0.190844 -2.082406 -1.893969 -2.269906 -3.026781 " transform="matrix(1,0,0,-1,187.42225,79.149)"/>
</g>
</svg>
