<?xml version="1.0" encoding="UTF-8"?>
<svg xmlns="http://www.w3.org/2000/svg" xmlns:xlink="http://www.w3.org/1999/xlink" width="403pt" height="348pt" viewBox="0 0 403 348" version="1.1">
<g id="surface1">
<path style="fill-rule:nonzero;fill:rgb(0%,0%,0%);fill-opacity:1;stroke-width:0.3985;stroke-linecap:butt;stroke-linejoin:miter;stroke:rgb(0%,0%,0%);stroke-opacity:1;stroke-miterlimit:10;" d="M 196.3945 -113.388219 L -0.00003125 226.775844 L -196.394563 -113.388219 L 196.3945 -113.388219 " transform="matrix(1,0,0,-1,201.668,232.061)"/>
<path style="fill-rule:nonzero;fill:rgb(100%,100%,100%);fill-opacity:1;stroke-width:0.3985;stroke-linecap:butt;stroke-linejoin:miter;stroke:rgb(100%,100%,100%);stroke-opacity:1;stroke-miterlimit:10;" d="M 98.195281 56.693812 L -0.00003125 -113.388219 L -98.195344 56.693812 L 98.195281 56.693812 " transform="matrix(1,0,0,-1,201.668,232.061)"/>
<path style="fill-rule:nonzero;fill:rgb(100%,100%,100%);fill-opacity:1;stroke-width:0.3985;stroke-linecap:butt;stroke-linejoin:miter;stroke:rgb(100%,100%,100%);stroke-opacity:1;stroke-miterlimit:10;" d="M 49.097625 141.732875 L -0.00003125 56.693812 L -49.097688 141.732875 L 49.097625 141.732875 " transform="matrix(1,0,0,-1,201.668,232.061)"/>
<path style="fill-rule:nonzero;fill:rgb(100%,100%,100%);fill-opacity:1;stroke-width:0.3985;stroke-linecap:butt;stroke-linejoin:miter;stroke:rgb(100%,100%,100%);stroke-opacity:1;stroke-miterlimit:10;" d="M 24.55075 184.252406 L -0.00003125 141.732875 L -24.550813 184.252406 L 24.55075 184.252406 " transform="matrix(1,0,0,-1,201.668,232.061)"/>
<path style="fill-rule:nonzero;fill:rgb(100%,100%,100%);fill-opacity:1;stroke-width:0.3985;stroke-linecap:butt;stroke-linejoin:miter;stroke:rgb(100%,100%,100%);stroke-opacity:1;stroke-miterlimit:10;" d="M 12.273406 205.514125 L -0.00003125 184.252406 L -12.273469 205.514125 L 12.273406 205.514125 " transform="matrix(1,0,0,-1,201.668,232.061)"/>
<path style="fill-rule:nonzero;fill:rgb(100%,100%,100%);fill-opacity:1;stroke-width:0.3985;stroke-linecap:butt;stroke-linejoin:miter;stroke:rgb(100%,100%,100%);stroke-opacity:1;stroke-miterlimit:10;" d="M 6.136687 216.143031 L -0.00003125 205.514125 L -6.13675 216.143031 L 6.136687 216.143031 " transform="matrix(1,0,0,-1,201.668,232.061)"/>
<path style="fill-rule:nonzero;fill:rgb(100%,100%,100%);fill-opacity:1;stroke-width:0.3985;stroke-linecap:butt;stroke-linejoin:miter;stroke:rgb(100%,100%,100%);stroke-opacity:1;stroke-miterlimit:10;" d="M 3.070281 221.459437 L -0.00003125 216.143031 L -3.070344 221.459437 L 3.070281 221.459437 " transform="matrix(1,0,0,-1,201.668,232.061)"/>
<path style="fill-rule:nonzero;fill:rgb(100%,100%,100%);fill-opacity:1;stroke-width:0.3985;stroke-linecap:butt;stroke-linejoin:miter;stroke:rgb(100%,100%,100%);stroke-opacity:1;stroke-miterlimit:10;" d="M 1.535125 224.115687 L -0.00003125 221.459437 L -1.535188 224.115687 L 1.535125 224.115687 " transform="matrix(1,0,0,-1,201.668,232.061)"/>
<path style="fill-rule:nonzero;fill:rgb(100%,100%,100%);fill-opacity:1;stroke-width:0.3985;stroke-linecap:butt;stroke-linejoin:miter;stroke:rgb(100%,100%,100%);stroke-opacity:1;stroke-miterlimit:10;" d="M 0.765594 225.443812 L -0.00003125 224.115687 L -0.765656 225.443812 L 0.765594 225.443812 " transform="matrix(1,0,0,-1,201.668,232.061)"/>
<path style="fill-rule:nonzero;fill:rgb(100%,100%,100%);fill-opacity:1;stroke-width:0.3985;stroke-linecap:butt;stroke-linejoin:miter;stroke:rgb(100%,100%,100%);stroke-opacity:1;stroke-miterlimit:10;" d="M 0.382781 226.111781 L -0.00003125 225.443812 L -0.382844 226.111781 L 0.382781 226.111781 " transform="matrix(1,0,0,-1,201.668,232.061)"/>
<path style="fill-rule:nonzero;fill:rgb(100%,100%,100%);fill-opacity:1;stroke-width:0.3985;stroke-linecap:butt;stroke-linejoin:miter;stroke:rgb(100%,100%,100%);stroke-opacity:1;stroke-miterlimit:10;" d="M 0.191375 226.443812 L -0.00003125 226.111781 L -0.191438 226.443812 L 0.191375 226.443812 " transform="matrix(1,0,0,-1,201.668,232.061)"/>
<path style="fill:none;stroke-width:4.98138;stroke-linecap:butt;stroke-linejoin:miter;stroke:rgb(100%,0%,0%);stroke-opacity:1;stroke-miterlimit:10;" d="M 196.3945 -113.388219 L -0.00003125 226.775844 L -196.394563 -113.388219 Z M 196.3945 -113.388219 " transform="matrix(1,0,0,-1,201.668,232.061)"/>
</g>
</svg>
