<?xml version="1.0" encoding="UTF-8"?>
<svg xmlns="http://www.w3.org/2000/svg" xmlns:xlink="http://www.w3.org/1999/xlink" width="105pt" height="165pt" viewBox="0 0 105 165" version="1.1">
<g id="surface1">
<path style="fill:none;stroke-width:0.79701;stroke-linecap:butt;stroke-linejoin:miter;stroke:rgb(0%,0%,0%);stroke-opacity:1;stroke-miterlimit:10;" d="M 51.378406 -70.866625 L 44.304187 -64.960375 L 37.84325 -59.058031 L 31.9995 -53.151781 L 26.772937 -47.245531 L 22.159656 -41.339281 L 18.159656 -35.433031 L 14.776844 -29.530688 L 12.007312 -23.624438 L 9.854969 -17.718188 L 8.315906 -11.811938 L 7.394031 -5.905688 L 7.085437 -0.00334375 L 7.394031 5.902906 L 8.315906 11.809156 L 9.854969 17.715406 L 12.007312 23.621656 L 14.772937 29.524 L 18.159656 35.43025 L 22.15575 41.3365 L 26.769031 47.24275 L 31.9995 53.149 L 37.84325 59.051344 L 44.300281 64.957594 L 51.3745 70.863844 " transform="matrix(1,0,0,-1,52.563,79.149)"/>
<path style="fill:none;stroke-width:0.79701;stroke-linecap:butt;stroke-linejoin:miter;stroke:rgb(0%,0%,0%);stroke-opacity:1;stroke-miterlimit:10;" d="M -51.379406 -70.866625 L -44.305188 -64.960375 L -37.84425 -59.058031 L -32.0005 -53.151781 L -26.773938 -47.245531 L -22.15675 -41.339281 L -18.160656 -35.433031 L -14.777844 -29.530688 L -12.008313 -23.624438 L -9.855969 -17.718188 L -8.316906 -11.811938 L -7.395031 -5.905688 L -7.086438 -0.00334375 L -7.395031 5.902906 L -8.316906 11.809156 L -9.855969 17.715406 L -12.008313 23.621656 L -14.773938 29.524 L -18.15675 35.43025 L -22.15675 41.3365 L -26.770031 47.24275 L -31.996594 53.149 L -37.840344 59.051344 L -44.301281 64.957594 L -51.3755 70.863844 " transform="matrix(1,0,0,-1,52.563,79.149)"/>
<path style="fill:none;stroke-width:0.79701;stroke-linecap:butt;stroke-linejoin:miter;stroke:rgb(0%,0%,0%);stroke-opacity:1;stroke-miterlimit:10;" d="M -51.379406 -70.866625 C -51.379406 -78.69475 -28.3755 -85.0385 -0.0005 -85.0385 C 28.3745 -85.0385 51.378406 -78.69475 51.378406 -70.866625 " transform="matrix(1,0,0,-1,52.563,79.149)"/>
<path style="fill-rule:nonzero;fill:rgb(0%,0%,0%);fill-opacity:0.3;stroke-width:0.79701;stroke-linecap:butt;stroke-linejoin:miter;stroke:rgb(0%,0%,0%);stroke-opacity:1;stroke-miterlimit:10;" d="M 51.378406 70.86775 C 51.378406 74.781812 28.3745 77.953687 -0.0005 77.953687 C -28.3755 77.953687 -51.379406 74.781812 -51.379406 70.86775 C -51.379406 66.953687 -28.3755 63.781812 -0.0005 63.781812 C 28.3745 63.781812 51.378406 66.953687 51.378406 70.86775 Z M 51.378406 70.86775 " transform="matrix(1,0,0,-1,52.563,79.149)"/>
<path style="fill:none;stroke-width:0.79701;stroke-linecap:butt;stroke-linejoin:miter;stroke:rgb(0%,0%,0%);stroke-opacity:1;stroke-miterlimit:10;" d="M -7.086438 0.0005625 C -7.086438 -1.097094 -3.914563 -1.983813 -0.0005 -1.983813 C 3.913562 -1.983813 7.085437 -1.097094 7.085437 0.0005625 " transform="matrix(1,0,0,-1,52.563,79.149)"/>
<path style=" stroke:none;fill-rule:nonzero;fill:rgb(0%,0%,0%);fill-opacity:0.3;" d="M 1.183594 8.28125 C 1.183594 12.195312 24.1875 15.367188 52.5625 15.367188 C 80.9375 15.367188 103.941406 12.195312 103.941406 8.28125 L 100.328125 11.234375 L 96.867188 14.1875 L 93.5625 17.140625 L 90.410156 20.09375 L 87.410156 23.042969 L 84.566406 25.996094 L 81.875 28.949219 L 79.335938 31.902344 L 76.953125 34.855469 L 74.722656 37.808594 L 72.648438 40.757812 L 70.726562 43.710938 L 68.957031 46.664062 L 67.339844 49.617188 L 65.878906 52.570312 L 64.574219 55.523438 L 63.417969 58.472656 L 62.417969 61.425781 L 61.574219 64.378906 L 60.882812 67.332031 L 60.34375 70.285156 L 59.957031 73.238281 L 59.726562 76.191406 L 59.648438 79.140625 C 59.648438 80.238281 56.476562 81.125 52.5625 81.125 C 48.648438 81.125 45.476562 80.238281 45.476562 79.140625 L 45.476562 79.148438 L 45.398438 76.195312 L 45.167969 73.242188 L 44.785156 70.292969 L 44.246094 67.339844 L 43.554688 64.386719 L 42.707031 61.433594 L 41.710938 58.480469 L 40.554688 55.527344 L 39.25 52.578125 L 37.789062 49.625 L 36.175781 46.671875 L 34.40625 43.71875 L 32.484375 40.765625 L 30.40625 37.8125 L 28.179688 34.863281 L 25.796875 31.910156 L 23.257812 28.957031 L 20.566406 26.003906 L 17.722656 23.050781 L 14.722656 20.097656 L 11.570312 17.144531 L 8.265625 14.195312 L 4.804688 11.242188 L 1.191406 8.289062 "/>
</g>
</svg>
