<?xml version="1.0" encoding="UTF-8"?>
<svg xmlns="http://www.w3.org/2000/svg" xmlns:xlink="http://www.w3.org/1999/xlink" width="483pt" height="257pt" viewBox="0 0 483 257" version="1.1">
<g id="surface1">
<path style="fill:none;stroke-width:0.79701;stroke-linecap:butt;stroke-linejoin:miter;stroke:rgb(100%,0%,0%);stroke-opacity:1;stroke-miterlimit:10;" d="M -56.694406 127.561094 L -29.053781 127.561094 " transform="matrix(1,0,0,-1,56.878,256.315)"/>
<path style="fill:none;stroke-width:0.6376;stroke-linecap:round;stroke-linejoin:round;stroke:rgb(100%,0%,0%);stroke-opacity:1;stroke-miterlimit:10;" d="M -1.554299 2.070786 C -1.425392 1.293442 0.00038875 0.12938 0.387108 0.00047375 C 0.00038875 -0.128433 -1.425392 -1.296401 -1.554299 -2.073745 " transform="matrix(1,0,0,-1,27.82383,128.75438)"/>
<path style="fill:none;stroke-width:0.79701;stroke-linecap:butt;stroke-linejoin:miter;stroke:rgb(100%,0%,0%);stroke-opacity:1;stroke-miterlimit:10;" d="M 0.00090625 -0.00140625 L 0.00090625 255.119687 L 255.122 255.119687 L 255.122 -0.00140625 Z M 0.00090625 -0.00140625 " transform="matrix(1,0,0,-1,56.878,256.315)"/>
<path style="fill-rule:nonzero;fill:rgb(0%,0%,0%);fill-opacity:0.8;stroke-width:0.3985;stroke-linecap:butt;stroke-linejoin:miter;stroke:rgb(0%,0%,0%);stroke-opacity:1;stroke-miterlimit:10;" d="M 85.039969 -0.0053125 L 85.039969 255.123594 L -0.003 255.123594 L -0.003 -0.0053125 Z M 85.039969 -0.0053125 " transform="matrix(1,0,0,-1,56.878,256.315)"/>
<path style="fill:none;stroke-width:0.3985;stroke-linecap:butt;stroke-linejoin:miter;stroke:rgb(0%,0%,0%);stroke-opacity:1;stroke-miterlimit:10;" d="M 170.082938 -0.0053125 L 170.082938 255.123594 " transform="matrix(1,0,0,-1,56.878,256.315)"/>
<path style="fill-rule:nonzero;fill:rgb(0%,0%,0%);fill-opacity:0.8;stroke-width:0.3985;stroke-linecap:butt;stroke-linejoin:miter;stroke:rgb(0%,0%,0%);stroke-opacity:1;stroke-miterlimit:10;" d="M 85.039969 -0.0053125 L 85.039969 85.037656 L 170.082938 85.037656 L 170.082938 -0.0053125 Z M 85.039969 -0.0053125 " transform="matrix(1,0,0,-1,56.878,256.315)"/>
<path style="fill:none;stroke-width:0.3985;stroke-linecap:butt;stroke-linejoin:miter;stroke:rgb(0%,0%,0%);stroke-opacity:1;stroke-miterlimit:10;" d="M 85.039969 170.080625 L 170.082938 170.080625 " transform="matrix(1,0,0,-1,56.878,256.315)"/>
<path style="fill-rule:nonzero;fill:rgb(0%,0%,0%);fill-opacity:0.6;stroke-width:0.3985;stroke-linecap:butt;stroke-linejoin:miter;stroke:rgb(0%,0%,0%);stroke-opacity:1;stroke-miterlimit:10;" d="M 113.387625 85.037656 L 113.387625 170.080625 L 85.039969 170.080625 L 85.039969 85.037656 Z M 113.387625 85.037656 " transform="matrix(1,0,0,-1,56.878,256.315)"/>
<path style="fill:none;stroke-width:0.3985;stroke-linecap:butt;stroke-linejoin:miter;stroke:rgb(0%,0%,0%);stroke-opacity:1;stroke-miterlimit:10;" d="M 141.735281 85.037656 L 141.735281 170.080625 " transform="matrix(1,0,0,-1,56.878,256.315)"/>
<path style="fill-rule:nonzero;fill:rgb(0%,0%,0%);fill-opacity:0.6;stroke-width:0.3985;stroke-linecap:butt;stroke-linejoin:miter;stroke:rgb(0%,0%,0%);stroke-opacity:1;stroke-miterlimit:10;" d="M 113.387625 85.037656 L 113.387625 113.385312 L 141.735281 113.385312 L 141.735281 85.037656 Z M 113.387625 85.037656 " transform="matrix(1,0,0,-1,56.878,256.315)"/>
<path style="fill:none;stroke-width:0.3985;stroke-linecap:butt;stroke-linejoin:miter;stroke:rgb(0%,0%,0%);stroke-opacity:1;stroke-miterlimit:10;" d="M 113.387625 141.732969 L 141.735281 141.732969 " transform="matrix(1,0,0,-1,56.878,256.315)"/>
<path style="fill:none;stroke-width:0.79701;stroke-linecap:butt;stroke-linejoin:miter;stroke:rgb(100%,0%,0%);stroke-opacity:1;stroke-miterlimit:10;" d="M 283.469656 127.561094 L 311.106375 127.561094 " transform="matrix(1,0,0,-1,56.878,256.315)"/>
<path style="fill:none;stroke-width:0.6376;stroke-linecap:round;stroke-linejoin:round;stroke:rgb(100%,0%,0%);stroke-opacity:1;stroke-miterlimit:10;" d="M -1.555853 2.070786 C -1.42304 1.293442 -0.001165 0.12938 0.38946 0.00047375 C -0.001165 -0.128433 -1.42304 -1.296401 -1.555853 -2.073745 " transform="matrix(1,0,0,-1,367.98554,128.75438)"/>
<path style="fill:none;stroke-width:0.79701;stroke-linecap:butt;stroke-linejoin:miter;stroke:rgb(100%,0%,0%);stroke-opacity:1;stroke-miterlimit:10;" d="M 340.161063 -0.00140625 L 340.161063 255.119687 L 595.282156 255.119687 L 595.282156 -0.00140625 Z M 340.161063 -0.00140625 " transform="matrix(1,0,0,-1,56.878,256.315)"/>
<path style="fill-rule:nonzero;fill:rgb(0%,0%,0%);fill-opacity:0.8;stroke-width:0.3985;stroke-linecap:butt;stroke-linejoin:miter;stroke:rgb(0%,0%,0%);stroke-opacity:1;stroke-miterlimit:10;" d="M 425.200125 -0.0053125 L 425.200125 255.123594 L 340.157156 255.123594 L 340.157156 -0.0053125 Z M 425.200125 -0.0053125 " transform="matrix(1,0,0,-1,56.878,256.315)"/>
<path style="fill-rule:nonzero;fill:rgb(0%,0%,0%);fill-opacity:0.8;stroke-width:0.3985;stroke-linecap:butt;stroke-linejoin:miter;stroke:rgb(0%,0%,0%);stroke-opacity:1;stroke-miterlimit:10;" d="M 425.200125 -0.0053125 L 425.200125 85.037656 L 510.243094 85.037656 L 510.243094 -0.0053125 Z M 425.200125 -0.0053125 " transform="matrix(1,0,0,-1,56.878,256.315)"/>
<path style="fill:none;stroke-width:0.3985;stroke-linecap:butt;stroke-linejoin:miter;stroke:rgb(0%,0%,0%);stroke-opacity:1;stroke-miterlimit:10;" d="M 425.200125 170.080625 L 510.243094 170.080625 " transform="matrix(1,0,0,-1,56.878,256.315)"/>
<path style="fill-rule:nonzero;fill:rgb(0%,0%,0%);fill-opacity:0.6;stroke-width:0.3985;stroke-linecap:butt;stroke-linejoin:miter;stroke:rgb(0%,0%,0%);stroke-opacity:1;stroke-miterlimit:10;" d="M 453.547781 85.037656 L 453.547781 170.080625 L 425.200125 170.080625 L 425.200125 85.037656 Z M 453.547781 85.037656 " transform="matrix(1,0,0,-1,56.878,256.315)"/>
</g>
</svg>
