<?xml version="1.0" encoding="UTF-8"?>
<svg xmlns="http://www.w3.org/2000/svg" xmlns:xlink="http://www.w3.org/1999/xlink" width="483pt" height="144pt" viewBox="0 0 483 144" version="1.1">
<g id="surface1">
<path style="fill:none;stroke-width:0.79701;stroke-linecap:butt;stroke-linejoin:miter;stroke:rgb(100%,0%,0%);stroke-opacity:1;stroke-miterlimit:10;" d="M -56.694406 70.8665 L -29.053781 70.8665 " transform="matrix(1,0,0,-1,56.878,142.929)"/>
<path style="fill:none;stroke-width:0.6376;stroke-linecap:round;stroke-linejoin:round;stroke:rgb(100%,0%,0%);stroke-opacity:1;stroke-miterlimit:10;" d="M -1.554299 2.073719 C -1.425392 1.296375 0.00038875 0.128406 0.387108 -0.0005 C 0.00038875 -0.129406 -1.425392 -1.293469 -1.554299 -2.070813 " transform="matrix(1,0,0,-1,27.82383,72.062)"/>
<path style="fill:none;stroke-width:0.79701;stroke-linecap:butt;stroke-linejoin:miter;stroke:rgb(100%,0%,0%);stroke-opacity:1;stroke-miterlimit:10;" d="M 0.00090625 -0.0006875 L 0.00090625 141.733688 L 255.122 141.733688 L 255.122 -0.0006875 Z M 0.00090625 -0.0006875 " transform="matrix(1,0,0,-1,56.878,142.929)"/>
<path style="fill-rule:nonzero;fill:rgb(0%,0%,0%);fill-opacity:0.2;stroke-width:0.3985;stroke-linecap:butt;stroke-linejoin:miter;stroke:rgb(0%,0%,0%);stroke-opacity:1;stroke-miterlimit:10;" d="M 85.039969 -0.0006875 L 85.039969 141.733688 L 0.00090625 141.733688 L 0.00090625 -0.0006875 Z M 85.039969 -0.0006875 " transform="matrix(1,0,0,-1,56.878,142.929)"/>
<path style="fill:none;stroke-width:0.3985;stroke-linecap:butt;stroke-linejoin:miter;stroke:rgb(0%,0%,0%);stroke-opacity:1;stroke-miterlimit:10;" d="M 170.082938 -0.0006875 L 170.082938 141.733688 " transform="matrix(1,0,0,-1,56.878,142.929)"/>
<path style="fill-rule:nonzero;fill:rgb(0%,0%,0%);fill-opacity:0.2;stroke-width:0.3985;stroke-linecap:butt;stroke-linejoin:miter;stroke:rgb(0%,0%,0%);stroke-opacity:1;stroke-miterlimit:10;" d="M 113.387625 -0.0006875 L 113.387625 141.733688 L 0.00090625 141.733688 L 0.00090625 -0.0006875 Z M 113.387625 -0.0006875 " transform="matrix(1,0,0,-1,56.878,142.929)"/>
<path style="fill:none;stroke-width:0.3985;stroke-linecap:butt;stroke-linejoin:miter;stroke:rgb(0%,0%,0%);stroke-opacity:1;stroke-miterlimit:10;" d="M 141.735281 -0.0006875 L 141.735281 141.733688 " transform="matrix(1,0,0,-1,56.878,142.929)"/>
<path style="fill-rule:nonzero;fill:rgb(0%,0%,0%);fill-opacity:0.2;stroke-width:0.3985;stroke-linecap:butt;stroke-linejoin:miter;stroke:rgb(0%,0%,0%);stroke-opacity:1;stroke-miterlimit:10;" d="M 122.832938 -0.0006875 L 122.832938 141.733688 L 0.00090625 141.733688 L 0.00090625 -0.0006875 Z M 122.832938 -0.0006875 " transform="matrix(1,0,0,-1,56.878,142.929)"/>
<path style="fill:none;stroke-width:0.3985;stroke-linecap:butt;stroke-linejoin:miter;stroke:rgb(0%,0%,0%);stroke-opacity:1;stroke-miterlimit:10;" d="M 132.286063 -0.0006875 L 132.286063 141.733688 " transform="matrix(1,0,0,-1,56.878,142.929)"/>
<path style="fill:none;stroke-width:0.79701;stroke-linecap:butt;stroke-linejoin:miter;stroke:rgb(100%,0%,0%);stroke-opacity:1;stroke-miterlimit:10;" d="M 283.469656 70.8665 L 311.106375 70.8665 " transform="matrix(1,0,0,-1,56.878,142.929)"/>
<path style="fill:none;stroke-width:0.6376;stroke-linecap:round;stroke-linejoin:round;stroke:rgb(100%,0%,0%);stroke-opacity:1;stroke-miterlimit:10;" d="M -1.555853 2.073719 C -1.42304 1.296375 -0.001165 0.128406 0.38946 -0.0005 C -0.001165 -0.129406 -1.42304 -1.293469 -1.555853 -2.070813 " transform="matrix(1,0,0,-1,367.98554,72.062)"/>
<path style="fill:none;stroke-width:0.79701;stroke-linecap:butt;stroke-linejoin:miter;stroke:rgb(100%,0%,0%);stroke-opacity:1;stroke-miterlimit:10;" d="M 340.161063 -0.0006875 L 340.161063 141.733688 L 595.282156 141.733688 L 595.282156 -0.0006875 Z M 340.161063 -0.0006875 " transform="matrix(1,0,0,-1,56.878,142.929)"/>
<path style="fill-rule:nonzero;fill:rgb(0%,0%,0%);fill-opacity:0.2;stroke-width:0.3985;stroke-linecap:butt;stroke-linejoin:miter;stroke:rgb(0%,0%,0%);stroke-opacity:1;stroke-miterlimit:10;" d="M 425.200125 -0.0006875 L 425.200125 141.733688 L 340.161063 141.733688 L 340.161063 -0.0006875 Z M 425.200125 -0.0006875 " transform="matrix(1,0,0,-1,56.878,142.929)"/>
<path style="fill-rule:nonzero;fill:rgb(0%,0%,0%);fill-opacity:0.2;stroke-width:0.3985;stroke-linecap:butt;stroke-linejoin:miter;stroke:rgb(0%,0%,0%);stroke-opacity:1;stroke-miterlimit:10;" d="M 453.547781 -0.0006875 L 453.547781 141.733688 L 340.161063 141.733688 L 340.161063 -0.0006875 Z M 453.547781 -0.0006875 " transform="matrix(1,0,0,-1,56.878,142.929)"/>
<path style="fill-rule:nonzero;fill:rgb(0%,0%,0%);fill-opacity:0.2;stroke-width:0.3985;stroke-linecap:butt;stroke-linejoin:miter;stroke:rgb(0%,0%,0%);stroke-opacity:1;stroke-miterlimit:10;" d="M 462.997 -0.0006875 L 462.997 141.733688 L 340.161063 141.733688 L 340.161063 -0.0006875 Z M 462.997 -0.0006875 " transform="matrix(1,0,0,-1,56.878,142.929)"/>
<path style="fill-rule:nonzero;fill:rgb(0%,0%,0%);fill-opacity:0.2;stroke-width:0.3985;stroke-linecap:butt;stroke-linejoin:miter;stroke:rgb(0%,0%,0%);stroke-opacity:1;stroke-miterlimit:10;" d="M 466.145438 -0.0006875 L 466.145438 141.733688 L 340.161063 141.733688 L 340.161063 -0.0006875 Z M 466.145438 -0.0006875 " transform="matrix(1,0,0,-1,56.878,142.929)"/>
</g>
</svg>
