<?xml version="1.0" encoding="UTF-8"?>
<svg xmlns="http://www.w3.org/2000/svg" xmlns:xlink="http://www.w3.org/1999/xlink" width="261pt" height="261pt" viewBox="0 0 261 261" version="1.1">
<g id="surface1">
<path style=" stroke:none;fill-rule:nonzero;fill:rgb(100%,0%,0%);fill-opacity:1;" d="M 3.277344 258.40625 L 3.277344 3.285156 L 258.398438 3.285156 L 258.398438 258.40625 Z M 3.277344 258.40625 "/>
<path style=" stroke:none;fill-rule:nonzero;fill:rgb(0%,100%,0%);fill-opacity:1;" d="M 88.320312 173.367188 L 88.320312 88.324219 L 173.359375 88.324219 L 173.359375 173.367188 Z M 88.320312 173.367188 "/>
<path style=" stroke:none;fill-rule:nonzero;fill:rgb(0%,0%,100%);fill-opacity:1;" d="M 116.664062 145.019531 L 116.664062 116.671875 L 145.011719 116.671875 L 145.011719 145.019531 Z M 116.664062 145.019531 "/>
<path style=" stroke:none;fill-rule:nonzero;fill:rgb(75%,0%,25%);fill-opacity:1;" d="M 126.113281 135.570312 L 126.113281 126.121094 L 135.5625 126.121094 L 135.5625 135.570312 Z M 126.113281 135.570312 "/>
<path style="fill:none;stroke-width:0.3985;stroke-linecap:butt;stroke-linejoin:miter;stroke:rgb(0%,0%,0%);stroke-opacity:1;stroke-miterlimit:10;" d="M -0.00065625 0.00075 L 255.120437 0.00075 M -0.00065625 85.039812 L 255.120437 85.039812 M -0.00065625 170.082781 L 255.120437 170.082781 M -0.00065625 255.110125 L 255.120437 255.110125 M -0.00065625 0.00075 L -0.00065625 255.121844 M 85.042312 0.00075 L 85.042312 255.121844 M 170.081375 0.00075 L 170.081375 255.121844 M 255.112625 0.00075 L 255.112625 255.121844 " transform="matrix(1,0,0,-1,3.278,258.407)"/>
<path style="fill:none;stroke-width:0.3985;stroke-linecap:butt;stroke-linejoin:miter;stroke:rgb(0%,0%,0%);stroke-opacity:1;stroke-miterlimit:10;" d="M 85.042312 85.039812 L 170.081375 85.039812 M 85.042312 113.387469 L 170.081375 113.387469 M 85.042312 141.735125 L 170.081375 141.735125 M 85.042312 170.071062 L 170.081375 170.071062 M 85.042312 85.039812 L 85.042312 170.082781 M 113.386062 85.039812 L 113.386062 170.082781 M 141.733719 85.039812 L 141.733719 170.082781 M 170.069656 85.039812 L 170.069656 170.082781 " transform="matrix(1,0,0,-1,3.278,258.407)"/>
<path style="fill:none;stroke-width:0.3985;stroke-linecap:butt;stroke-linejoin:miter;stroke:rgb(0%,0%,0%);stroke-opacity:1;stroke-miterlimit:10;" d="M 113.386062 122.821062 L 141.733719 122.821062 M 113.386062 132.270281 L 141.733719 132.270281 M 113.386062 141.7195 L 141.733719 141.7195 M 122.823562 113.387469 L 122.823562 141.735125 M 132.272781 113.387469 L 132.272781 141.735125 M 141.718094 113.387469 L 141.718094 141.735125 " transform="matrix(1,0,0,-1,3.278,258.407)"/>
<path style="fill:none;stroke-width:0.3985;stroke-linecap:butt;stroke-linejoin:miter;stroke:rgb(0%,0%,0%);stroke-opacity:1;stroke-miterlimit:10;" d="M 122.835281 122.840594 L 132.2845 122.840594 M 122.835281 125.989031 L 132.2845 125.989031 M 122.835281 129.137469 L 132.2845 129.137469 M 122.835281 132.278094 L 132.2845 132.278094 M 122.839187 122.836687 L 122.839187 132.285906 M 125.987625 122.836687 L 125.987625 132.285906 M 129.139969 122.836687 L 129.139969 132.285906 M 132.276687 122.836687 L 132.276687 132.285906 " transform="matrix(1,0,0,-1,3.278,258.407)"/>
<path style="fill:none;stroke-width:0.3985;stroke-linecap:butt;stroke-linejoin:miter;stroke:rgb(0%,0%,0%);stroke-opacity:1;stroke-miterlimit:10;" d="M 125.983719 127.020281 L 129.132156 127.020281 M 125.983719 128.071062 L 129.132156 128.071062 M 125.983719 129.121844 L 129.132156 129.121844 M 127.018875 125.985125 L 127.018875 129.133562 M 128.069656 125.985125 L 128.069656 129.133562 M 129.120437 125.985125 L 129.120437 129.133562 " transform="matrix(1,0,0,-1,3.278,258.407)"/>
<path style="fill:none;stroke-width:4.98138;stroke-linecap:butt;stroke-linejoin:miter;stroke:rgb(100%,0%,0%);stroke-opacity:1;stroke-miterlimit:10;" d="M -0.00065625 0.00075 L -0.00065625 255.121844 L 255.120437 255.121844 L 255.120437 0.00075 Z M -0.00065625 0.00075 " transform="matrix(1,0,0,-1,3.278,258.407)"/>
</g>
</svg>
