<?xml version="1.0" encoding="UTF-8"?>
<svg xmlns="http://www.w3.org/2000/svg" xmlns:xlink="http://www.w3.org/1999/xlink" width="484pt" height="257pt" viewBox="0 0 484 257" version="1.1">
<g id="surface1">
<path style="fill:none;stroke-width:0.79701;stroke-linecap:butt;stroke-linejoin:miter;stroke:rgb(100%,0%,0%);stroke-opacity:1;stroke-miterlimit:10;" d="M 0.0015 -0.00140625 L 0.0015 255.119687 L 255.122594 255.119687 L 255.122594 -0.00140625 Z M 0.0015 -0.00140625 " transform="matrix(1,0,0,-1,1.186,256.315)"/>
<path style="fill-rule:nonzero;fill:rgb(0%,0%,0%);fill-opacity:0.8;stroke-width:0.3985;stroke-linecap:butt;stroke-linejoin:miter;stroke:rgb(0%,0%,0%);stroke-opacity:1;stroke-miterlimit:10;" d="M 85.040562 -0.0053125 L 85.040562 255.123594 L -0.00240625 255.123594 L -0.00240625 -0.0053125 Z M 85.040562 -0.0053125 " transform="matrix(1,0,0,-1,1.186,256.315)"/>
<path style="fill:none;stroke-width:0.3985;stroke-linecap:butt;stroke-linejoin:miter;stroke:rgb(0%,0%,0%);stroke-opacity:1;stroke-miterlimit:10;" d="M 170.083531 -0.0053125 L 170.083531 255.123594 " transform="matrix(1,0,0,-1,1.186,256.315)"/>
<path style="fill:none;stroke-width:0.79701;stroke-linecap:butt;stroke-linejoin:miter;stroke:rgb(100%,0%,0%);stroke-opacity:1;stroke-miterlimit:10;" d="M 283.466344 127.561094 L 311.106969 127.561094 " transform="matrix(1,0,0,-1,1.186,256.315)"/>
<path style="fill:none;stroke-width:0.6376;stroke-linecap:round;stroke-linejoin:round;stroke:rgb(100%,0%,0%);stroke-opacity:1;stroke-miterlimit:10;" d="M -1.555259 2.070786 C -1.426353 1.293442 -0.00057125 0.12938 0.390054 0.00047375 C -0.00057125 -0.128433 -1.426353 -1.296401 -1.555259 -2.073745 " transform="matrix(1,0,0,-1,312.29354,128.75438)"/>
<path style="fill:none;stroke-width:0.79701;stroke-linecap:butt;stroke-linejoin:miter;stroke:rgb(100%,0%,0%);stroke-opacity:1;stroke-miterlimit:10;" d="M 340.161656 -0.00140625 L 340.161656 255.119687 L 595.28275 255.119687 L 595.28275 -0.00140625 Z M 340.161656 -0.00140625 " transform="matrix(1,0,0,-1,1.186,256.315)"/>
<path style="fill-rule:nonzero;fill:rgb(0%,0%,0%);fill-opacity:0.8;stroke-width:0.3985;stroke-linecap:butt;stroke-linejoin:miter;stroke:rgb(0%,0%,0%);stroke-opacity:1;stroke-miterlimit:10;" d="M 425.200719 -0.0053125 L 425.200719 255.123594 L 340.15775 255.123594 L 340.15775 -0.0053125 Z M 425.200719 -0.0053125 " transform="matrix(1,0,0,-1,1.186,256.315)"/>
<path style="fill-rule:nonzero;fill:rgb(0%,0%,0%);fill-opacity:0.8;stroke-width:0.3985;stroke-linecap:butt;stroke-linejoin:miter;stroke:rgb(0%,0%,0%);stroke-opacity:1;stroke-miterlimit:10;" d="M 425.200719 -0.0053125 L 425.200719 85.037656 L 510.243688 85.037656 L 510.243688 -0.0053125 Z M 425.200719 -0.0053125 " transform="matrix(1,0,0,-1,1.186,256.315)"/>
<path style="fill:none;stroke-width:0.3985;stroke-linecap:butt;stroke-linejoin:miter;stroke:rgb(0%,0%,0%);stroke-opacity:1;stroke-miterlimit:10;" d="M 425.200719 170.080625 L 510.243688 170.080625 " transform="matrix(1,0,0,-1,1.186,256.315)"/>
</g>
</svg>
