<?xml version="1.0" encoding="UTF-8"?>
<svg xmlns="http://www.w3.org/2000/svg" xmlns:xlink="http://www.w3.org/1999/xlink" width="257pt" height="257pt" viewBox="0 0 257 257" version="1.1">
<g id="surface1">
<path style="fill:none;stroke-width:0.79701;stroke-linecap:butt;stroke-linejoin:miter;stroke:rgb(100%,0%,0%);stroke-opacity:1;stroke-miterlimit:10;" d="M 0.0015 -0.00140625 L 0.0015 255.119687 L 255.122594 255.119687 L 255.122594 -0.00140625 Z M 0.0015 -0.00140625 " transform="matrix(1,0,0,-1,1.186,256.315)"/>
<path style="fill-rule:nonzero;fill:rgb(0%,0%,0%);fill-opacity:0.8;stroke-width:0.3985;stroke-linecap:butt;stroke-linejoin:miter;stroke:rgb(0%,0%,0%);stroke-opacity:1;stroke-miterlimit:10;" d="M 85.040562 -0.0053125 L 85.040562 255.123594 L -0.00240625 255.123594 L -0.00240625 -0.0053125 Z M 85.040562 -0.0053125 " transform="matrix(1,0,0,-1,1.186,256.315)"/>
<path style="fill:none;stroke-width:0.3985;stroke-linecap:butt;stroke-linejoin:miter;stroke:rgb(0%,0%,0%);stroke-opacity:1;stroke-miterlimit:10;" d="M 170.083531 -0.0053125 L 170.083531 255.123594 " transform="matrix(1,0,0,-1,1.186,256.315)"/>
<path style="fill-rule:nonzero;fill:rgb(0%,0%,0%);fill-opacity:0.8;stroke-width:0.3985;stroke-linecap:butt;stroke-linejoin:miter;stroke:rgb(0%,0%,0%);stroke-opacity:1;stroke-miterlimit:10;" d="M 85.040562 -0.0053125 L 85.040562 85.037656 L 170.083531 85.037656 L 170.083531 -0.0053125 Z M 85.040562 -0.0053125 " transform="matrix(1,0,0,-1,1.186,256.315)"/>
<path style="fill:none;stroke-width:0.3985;stroke-linecap:butt;stroke-linejoin:miter;stroke:rgb(0%,0%,0%);stroke-opacity:1;stroke-miterlimit:10;" d="M 85.040562 170.080625 L 170.083531 170.080625 " transform="matrix(1,0,0,-1,1.186,256.315)"/>
<path style="fill-rule:nonzero;fill:rgb(0%,0%,0%);fill-opacity:0.6;stroke-width:0.3985;stroke-linecap:butt;stroke-linejoin:miter;stroke:rgb(0%,0%,0%);stroke-opacity:1;stroke-miterlimit:10;" d="M 113.388219 85.037656 L 113.388219 170.080625 L 85.040562 170.080625 L 85.040562 85.037656 Z M 113.388219 85.037656 " transform="matrix(1,0,0,-1,1.186,256.315)"/>
<path style="fill:none;stroke-width:0.3985;stroke-linecap:butt;stroke-linejoin:miter;stroke:rgb(0%,0%,0%);stroke-opacity:1;stroke-miterlimit:10;" d="M 141.735875 85.037656 L 141.735875 170.080625 " transform="matrix(1,0,0,-1,1.186,256.315)"/>
<path style="fill-rule:nonzero;fill:rgb(0%,0%,0%);fill-opacity:0.6;stroke-width:0.3985;stroke-linecap:butt;stroke-linejoin:miter;stroke:rgb(0%,0%,0%);stroke-opacity:1;stroke-miterlimit:10;" d="M 113.388219 85.037656 L 113.388219 113.385312 L 141.735875 113.385312 L 141.735875 85.037656 Z M 113.388219 85.037656 " transform="matrix(1,0,0,-1,1.186,256.315)"/>
<path style="fill:none;stroke-width:0.3985;stroke-linecap:butt;stroke-linejoin:miter;stroke:rgb(0%,0%,0%);stroke-opacity:1;stroke-miterlimit:10;" d="M 113.388219 141.732969 L 141.735875 141.732969 " transform="matrix(1,0,0,-1,1.186,256.315)"/>
<path style="fill-rule:nonzero;fill:rgb(0%,0%,0%);fill-opacity:0.40001;stroke-width:0.3985;stroke-linecap:butt;stroke-linejoin:miter;stroke:rgb(0%,0%,0%);stroke-opacity:1;stroke-miterlimit:10;" d="M 122.833531 113.381406 L 122.833531 141.736875 L 113.384312 141.736875 L 113.384312 113.381406 Z M 122.833531 113.381406 " transform="matrix(1,0,0,-1,1.186,256.315)"/>
<path style="fill:none;stroke-width:0.3985;stroke-linecap:butt;stroke-linejoin:miter;stroke:rgb(0%,0%,0%);stroke-opacity:1;stroke-miterlimit:10;" d="M 132.286656 113.381406 L 132.286656 141.736875 " transform="matrix(1,0,0,-1,1.186,256.315)"/>
<path style="fill-rule:nonzero;fill:rgb(0%,0%,0%);fill-opacity:0.40001;stroke-width:0.3985;stroke-linecap:butt;stroke-linejoin:miter;stroke:rgb(0%,0%,0%);stroke-opacity:1;stroke-miterlimit:10;" d="M 122.833531 113.381406 L 122.833531 122.834531 L 132.286656 122.834531 L 132.286656 113.381406 Z M 122.833531 113.381406 " transform="matrix(1,0,0,-1,1.186,256.315)"/>
<path style="fill:none;stroke-width:0.3985;stroke-linecap:butt;stroke-linejoin:miter;stroke:rgb(0%,0%,0%);stroke-opacity:1;stroke-miterlimit:10;" d="M 122.833531 132.287656 L 132.286656 132.287656 " transform="matrix(1,0,0,-1,1.186,256.315)"/>
<path style="fill-rule:nonzero;fill:rgb(0%,0%,0%);fill-opacity:0.20001;stroke-width:0.3985;stroke-linecap:butt;stroke-linejoin:miter;stroke:rgb(0%,0%,0%);stroke-opacity:1;stroke-miterlimit:10;" d="M 125.985875 122.830625 L 125.985875 132.291562 L 122.829625 132.291562 L 122.829625 122.830625 Z M 125.985875 122.830625 " transform="matrix(1,0,0,-1,1.186,256.315)"/>
<path style="fill:none;stroke-width:0.3985;stroke-linecap:butt;stroke-linejoin:miter;stroke:rgb(0%,0%,0%);stroke-opacity:1;stroke-miterlimit:10;" d="M 129.138219 122.830625 L 129.138219 132.291562 " transform="matrix(1,0,0,-1,1.186,256.315)"/>
<path style="fill-rule:nonzero;fill:rgb(0%,0%,0%);fill-opacity:0.20001;stroke-width:0.3985;stroke-linecap:butt;stroke-linejoin:miter;stroke:rgb(0%,0%,0%);stroke-opacity:1;stroke-miterlimit:10;" d="M 125.985875 122.830625 L 125.985875 125.982969 L 129.138219 125.982969 L 129.138219 122.830625 Z M 125.985875 122.830625 " transform="matrix(1,0,0,-1,1.186,256.315)"/>
<path style="fill:none;stroke-width:0.3985;stroke-linecap:butt;stroke-linejoin:miter;stroke:rgb(0%,0%,0%);stroke-opacity:1;stroke-miterlimit:10;" d="M 125.985875 129.135312 L 129.138219 129.135312 " transform="matrix(1,0,0,-1,1.186,256.315)"/>
</g>
</svg>
