<?xml version="1.0" encoding="UTF-8"?>
<svg xmlns="http://www.w3.org/2000/svg" xmlns:xlink="http://www.w3.org/1999/xlink" width="143pt" height="47pt" viewBox="0 0 143 47" version="1.1">
<g id="surface1">
<path style="fill:none;stroke-width:0.3985;stroke-linecap:butt;stroke-linejoin:miter;stroke:rgb(0%,0%,0%);stroke-opacity:1;stroke-miterlimit:10;" d="M -0.001625 -0.00165625 C 0.830406 5.529594 3.877281 9.963188 7.471031 9.963188 C 11.064781 9.963188 14.115563 5.529594 14.943688 -0.00165625 C 15.775719 -5.529 14.389 -9.962594 12.4515 -9.962594 C 10.517906 -9.962594 9.131188 -5.529 9.963219 -0.00165625 C 10.791344 5.529594 13.838219 9.963188 17.435875 9.963188 C 21.029625 9.963188 24.0765 5.529594 24.908531 -0.00165625 C 25.736656 -5.529 24.349938 -9.962594 22.416344 -9.962594 C 20.48275 -9.962594 19.096031 -5.529 19.924156 -0.00165625 C 20.756188 5.529594 23.803063 9.963188 27.396813 9.963188 C 30.990563 9.963188 34.037438 5.529594 34.869469 -0.00165625 C 35.7015 -5.529 34.314781 -9.962594 32.377281 -9.962594 C 30.443688 -9.962594 29.056969 -5.529 29.889 -0.00165625 C 30.717125 5.529594 33.764 9.963188 37.361656 9.963188 C 40.955406 9.963188 44.002281 5.529594 44.830406 -0.00165625 C 45.662438 -5.529 44.275719 -9.962594 42.342125 -9.962594 C 40.408531 -9.962594 39.021813 -5.529 39.849938 -0.00165625 C 40.681969 5.529594 43.728844 9.963188 47.322594 9.963188 C 50.916344 9.963188 53.963219 5.529594 54.79525 -0.00165625 C 55.623375 -5.529 54.236656 -9.962594 52.303063 -9.962594 C 50.369469 -9.962594 48.98275 -5.529 49.814781 -0.00165625 C 50.642906 5.529594 53.689781 9.963188 57.287438 9.963188 C 60.881188 9.963188 63.928063 5.529594 64.756188 -0.00165625 C 65.588219 -5.529 64.2015 -9.962594 62.267906 -9.962594 C 60.334313 -9.962594 58.947594 -5.529 59.775719 -0.00165625 C 60.60775 5.529594 63.654625 9.963188 67.248375 9.963188 C 70.842125 9.963188 73.889 5.529594 74.721031 -0.00165625 C 75.549156 -5.529 74.162438 -9.962594 72.228844 -9.962594 C 70.29525 -9.962594 68.908531 -5.529 69.740563 -0.00165625 C 70.568688 5.529594 73.615563 9.963188 77.213219 9.963188 C 80.806969 9.963188 83.853844 5.529594 84.681969 -0.00165625 L 85.041344 -0.00165625 " transform="matrix(1,0,0,-1,0.986,14.971)"/>
<path style="fill:none;stroke-width:0.3985;stroke-linecap:butt;stroke-linejoin:miter;stroke:rgb(0%,0%,0%);stroke-opacity:1;stroke-miterlimit:10;" d="M 85.041344 -0.00165625 L 99.213219 -0.00165625 " transform="matrix(1,0,0,-1,0.986,14.971)"/>
<path style=" stroke:none;fill-rule:nonzero;fill:rgb(0%,0%,0%);fill-opacity:1;" d="M 128.546875 14.972656 C 128.546875 7.144531 122.199219 0.796875 114.375 0.796875 C 106.546875 0.796875 100.199219 7.144531 100.199219 14.972656 C 100.199219 22.800781 106.546875 29.144531 114.375 29.144531 C 122.199219 29.144531 128.546875 22.800781 128.546875 14.972656 Z M 128.546875 14.972656 "/>
<path style="fill:none;stroke-width:1.59404;stroke-linecap:butt;stroke-linejoin:miter;stroke:rgb(0%,0%,0%);stroke-opacity:1;stroke-miterlimit:10;" d="M 85.041344 -28.345406 L 140.529625 -28.345406 " transform="matrix(1,0,0,-1,0.986,14.971)"/>
<path style="fill:none;stroke-width:1.27522;stroke-linecap:round;stroke-linejoin:round;stroke:rgb(0%,0%,0%);stroke-opacity:1;stroke-miterlimit:10;" d="M -2.272343 3.028738 C -2.080936 1.892019 0.001095 0.188894 0.567501 0.00139375 C 0.001095 -0.190012 -2.080936 -1.893137 -2.272343 -3.029856 " transform="matrix(1,0,0,-1,141.51453,43.3178)"/>
</g>
</svg>
